<svg id="svg" version="1.1" xmlns="http://www.w3.org/2000/svg" xmlns:xlink="http://www.w3.org/1999/xlink" width="400" height="400" viewBox="0, 0, 400,400"><g id="svgg"><path id="path0" d="M244.110 61.016 C 236.900 62.958,231.579 68.216,228.946 76.000 C 228.233 78.108,228.198 81.190,228.105 149.800 C 228.052 189.180,227.913 221.805,227.797 222.300 C 227.514 223.498,226.844 223.435,224.897 222.024 C 221.745 219.741,224.631 223.839,167.984 141.204 C 139.577 99.765,138.281 98.067,132.926 95.272 C 119.330 88.176,103.649 94.731,99.990 109.038 C 98.921 113.219,98.745 272.378,99.804 277.400 C 104.326 298.841,133.331 300.124,140.499 279.200 L 141.390 276.600 141.595 231.800 C 141.826 181.227,141.648 183.968,144.726 183.673 C 147.739 183.384,142.985 176.845,197.013 255.600 C 245.596 326.417,243.773 323.803,246.455 326.490 C 263.472 343.535,291.549 327.776,281.179 307.000 C 280.300 305.240,269.878 289.670,258.017 272.400 C 236.455 241.002,233.354 236.116,232.915 232.844 L 232.681 231.099 234.041 231.313 C 234.788 231.430,237.493 232.267,240.051 233.172 C 254.215 238.183,266.931 231.782,269.796 218.200 C 270.679 214.009,270.684 81.606,269.800 77.435 C 267.294 65.605,255.369 57.983,244.110 61.016 " stroke="none" fill="#f9f9f9" fill-rule="evenodd"></path><path id="path1" d="M182.378 12.200 C 72.186 22.680,-3.674 119.332,12.216 229.000 C 26.490 327.517,114.195 397.071,214.266 389.236 C 315.538 381.307,390.128 299.564,388.688 198.087 C 388.481 183.544,387.875 177.039,385.567 164.600 C 371.627 89.465,313.714 30.625,238.747 15.431 C 222.084 12.054,198.265 10.688,182.378 12.200 M254.216 61.013 C 262.086 63.035,268.090 69.362,269.800 77.435 C 270.684 81.606,270.679 214.009,269.796 218.200 C 266.931 231.782,254.215 238.183,240.051 233.172 C 237.493 232.267,234.788 231.430,234.041 231.313 L 232.681 231.099 232.915 232.844 C 233.354 236.116,236.455 241.002,258.017 272.400 C 269.878 289.670,280.300 305.240,281.179 307.000 C 291.549 327.776,263.472 343.535,246.455 326.490 C 243.773 323.803,245.596 326.417,197.013 255.600 C 142.985 176.845,147.739 183.384,144.726 183.673 C 141.648 183.968,141.826 181.227,141.595 231.800 L 141.390 276.600 140.499 279.200 C 133.331 300.124,104.326 298.841,99.804 277.400 C 98.745 272.378,98.921 113.219,99.990 109.038 C 103.649 94.731,119.330 88.176,132.926 95.272 C 138.281 98.067,139.577 99.765,167.984 141.204 C 224.631 223.839,221.745 219.741,224.897 222.024 C 226.844 223.435,227.514 223.498,227.797 222.300 C 227.913 221.805,228.052 189.180,228.105 149.800 C 228.198 81.190,228.233 78.108,228.946 76.000 C 232.835 64.500,243.401 58.233,254.216 61.013 " stroke="none" fill="#040404" fill-rule="evenodd"></path></g></svg>