<svg id="svg" version="1.1" xmlns="http://www.w3.org/2000/svg" xmlns:xlink="http://www.w3.org/1999/xlink" width="400" height="400" viewBox="0, 0, 400,400"><g id="svgg"><path id="path0" d="M195.165 12.967 C 195.035 13.097,192.245 13.300,188.965 13.418 C 183.607 13.610,176.932 14.150,174.357 14.599 C 173.830 14.691,171.330 15.141,168.800 15.600 C 166.270 16.058,163.210 16.592,162.000 16.786 C 159.023 17.262,154.656 18.312,152.867 18.982 C 151.196 19.608,149.820 19.937,147.523 20.258 C 146.642 20.381,144.634 20.919,143.061 21.452 C 141.487 21.986,139.030 22.796,137.600 23.253 C 136.170 23.710,134.775 24.267,134.500 24.491 C 134.225 24.715,134.000 24.765,134.000 24.603 C 134.000 24.441,133.595 24.564,133.100 24.878 C 132.605 25.191,131.300 25.773,130.200 26.171 C 129.100 26.569,126.670 27.614,124.800 28.493 C 122.930 29.371,119.870 30.798,118.000 31.664 C 116.130 32.530,114.060 33.528,113.400 33.882 C 112.740 34.236,111.480 34.877,110.600 35.306 C 109.720 35.736,108.069 36.698,106.932 37.444 C 105.795 38.190,104.739 38.800,104.586 38.800 C 104.433 38.800,103.473 39.402,102.454 40.137 C 101.434 40.872,100.308 41.577,99.951 41.705 C 99.271 41.947,94.635 44.991,92.639 46.506 C 92.001 46.990,91.172 47.570,90.797 47.793 C 89.343 48.660,82.063 54.150,80.446 55.600 C 75.257 60.249,73.406 61.858,72.663 62.364 C 72.188 62.687,71.646 63.206,71.458 63.516 C 71.269 63.826,70.734 64.377,70.269 64.740 C 68.437 66.168,59.200 75.771,59.200 76.248 C 59.200 76.527,58.660 77.074,58.000 77.464 C 57.340 77.854,56.800 78.331,56.800 78.526 C 56.800 78.720,56.304 79.356,55.699 79.940 C 55.093 80.523,54.068 81.720,53.420 82.600 C 52.772 83.480,52.142 84.290,52.020 84.400 C 51.898 84.510,51.258 85.409,50.599 86.399 C 49.409 88.183,47.468 90.879,45.988 92.800 C 44.387 94.878,43.185 96.663,42.110 98.558 C 41.500 99.635,40.690 100.845,40.312 101.246 C 39.933 101.648,39.055 103.107,38.360 104.488 C 37.665 105.870,36.964 107.090,36.802 107.200 C 36.640 107.310,36.125 108.155,35.657 109.077 C 35.190 109.999,34.367 111.403,33.828 112.196 C 33.290 112.990,32.630 114.305,32.363 115.120 C 32.096 115.934,31.453 117.275,30.934 118.099 C 30.416 118.924,29.702 120.454,29.348 121.499 C 28.995 122.545,28.385 123.852,27.994 124.404 C 27.602 124.956,26.919 126.514,26.475 127.866 C 26.031 129.218,25.394 130.746,25.058 131.262 C 24.722 131.778,24.058 133.622,23.582 135.361 C 23.107 137.099,22.413 139.079,22.041 139.761 C 21.280 141.152,20.545 143.504,20.216 145.600 C 20.095 146.370,19.711 147.540,19.364 148.200 C 18.680 149.497,17.224 155.571,17.206 157.200 C 17.200 157.750,16.910 158.740,16.562 159.400 C 16.213 160.060,15.860 160.941,15.776 161.359 C 15.692 161.776,15.450 162.676,15.238 163.359 C 15.025 164.041,14.658 167.030,14.420 170.000 C 14.183 172.970,13.632 176.840,13.196 178.600 C 11.288 186.307,11.237 216.234,13.123 221.200 C 13.612 222.488,13.900 224.517,14.572 231.415 C 14.979 235.595,15.375 237.640,16.121 239.415 C 16.672 240.727,17.240 242.790,17.383 244.000 C 17.709 246.757,18.699 250.796,19.196 251.395 C 19.403 251.644,19.944 253.446,20.400 255.399 C 20.855 257.353,21.576 259.514,22.002 260.203 C 22.665 261.276,23.204 263.004,24.278 267.500 C 24.396 267.995,24.638 268.400,24.814 268.400 C 24.990 268.400,25.535 269.615,26.024 271.100 C 26.513 272.585,27.216 274.250,27.587 274.800 C 27.957 275.350,28.490 276.430,28.770 277.200 C 29.050 277.970,30.010 280.130,30.904 282.000 C 31.797 283.870,32.721 285.850,32.956 286.400 C 33.191 286.950,33.758 287.940,34.215 288.600 C 34.672 289.260,35.391 290.475,35.814 291.300 C 36.236 292.125,36.698 292.800,36.840 292.800 C 36.983 292.800,37.664 293.925,38.355 295.300 C 39.046 296.675,40.139 298.610,40.784 299.600 C 41.429 300.590,42.192 301.776,42.478 302.235 C 44.088 304.811,46.047 307.582,46.423 307.814 C 46.661 307.962,46.978 308.408,47.128 308.807 C 47.278 309.205,47.898 310.132,48.506 310.866 C 49.114 311.600,50.734 313.733,52.106 315.607 C 53.478 317.481,54.960 319.402,55.400 319.877 C 55.840 320.351,57.454 322.148,58.986 323.870 C 61.776 327.005,70.760 335.995,74.106 339.000 C 81.821 345.929,82.662 346.613,88.600 350.801 C 90.140 351.888,91.903 353.186,92.517 353.688 C 93.131 354.190,94.370 355.015,95.268 355.523 C 96.167 356.030,97.191 356.734,97.543 357.086 C 97.895 357.438,98.997 358.086,99.992 358.525 C 100.986 358.965,101.980 359.557,102.200 359.841 C 102.420 360.125,103.590 360.841,104.800 361.433 C 106.010 362.024,107.270 362.728,107.600 362.997 C 108.763 363.944,123.448 371.200,124.203 371.200 C 124.327 371.200,124.879 371.495,125.430 371.856 C 125.981 372.217,127.999 373.028,129.916 373.659 C 131.832 374.289,133.850 375.043,134.400 375.333 C 134.950 375.623,136.210 376.091,137.200 376.373 C 138.190 376.655,140.710 377.487,142.800 378.222 C 144.890 378.958,147.680 379.773,149.000 380.035 C 150.320 380.297,152.480 380.853,153.800 381.272 C 156.535 382.138,158.944 382.713,161.107 383.015 C 162.425 383.199,163.728 383.475,165.000 383.840 C 165.220 383.903,168.100 384.401,171.400 384.946 C 177.304 385.922,179.455 386.156,186.600 386.605 C 188.580 386.729,191.460 386.939,193.000 387.071 C 196.014 387.329,205.309 387.273,207.600 386.982 C 208.370 386.884,211.880 386.617,215.400 386.388 C 220.709 386.043,227.012 385.172,231.000 384.231 C 231.935 384.010,232.526 383.905,237.600 383.061 C 239.690 382.713,242.480 382.048,243.800 381.582 C 245.120 381.117,248.450 380.131,251.200 379.392 C 258.045 377.551,268.534 373.883,273.267 371.674 C 274.660 371.024,277.330 369.824,279.200 369.006 C 284.546 366.670,290.235 363.720,291.653 362.548 C 291.954 362.300,292.920 361.710,293.800 361.237 C 295.306 360.428,299.310 357.943,301.858 356.235 C 302.486 355.814,304.440 354.503,306.200 353.323 C 307.960 352.142,310.300 350.460,311.400 349.584 C 312.500 348.709,314.030 347.567,314.800 347.046 C 315.570 346.525,316.667 345.672,317.238 345.150 C 317.809 344.627,318.731 343.840,319.286 343.400 C 326.318 337.829,346.800 316.668,346.800 314.974 C 346.800 314.822,347.385 314.012,348.100 313.175 C 350.640 310.202,352.800 307.304,352.800 306.869 C 352.800 306.626,353.316 305.837,353.946 305.114 C 354.577 304.391,355.480 303.035,355.954 302.100 C 356.428 301.165,356.948 300.397,357.108 300.394 C 357.269 300.390,357.844 299.445,358.387 298.294 C 358.930 297.142,359.568 296.020,359.804 295.800 C 360.039 295.580,360.830 294.320,361.561 293.000 C 362.292 291.680,363.193 290.240,363.563 289.800 C 363.933 289.360,364.481 288.280,364.779 287.400 C 365.078 286.520,365.741 285.167,366.252 284.394 C 366.763 283.621,367.434 282.149,367.743 281.123 C 368.052 280.097,368.653 278.750,369.080 278.129 C 369.506 277.508,370.258 275.923,370.750 274.607 C 371.241 273.291,371.901 271.930,372.216 271.583 C 372.530 271.235,373.122 269.612,373.531 267.975 C 373.941 266.339,374.555 264.460,374.896 263.800 C 375.237 263.140,375.925 261.255,376.424 259.611 C 376.924 257.967,377.672 256.046,378.088 255.341 C 378.504 254.636,379.029 252.831,379.255 251.330 C 379.706 248.330,380.719 244.427,381.209 243.800 C 381.711 243.158,382.318 240.407,382.578 237.600 C 382.711 236.170,383.072 233.920,383.381 232.600 C 383.691 231.280,384.241 228.940,384.603 227.400 C 385.714 222.686,386.418 178.846,385.409 177.214 C 385.294 177.028,385.096 175.944,384.969 174.806 C 384.842 173.669,384.484 171.807,384.172 170.669 C 383.522 168.298,382.579 163.221,382.189 160.000 C 382.043 158.790,381.497 156.752,380.978 155.471 C 380.458 154.190,379.819 151.670,379.559 149.871 C 379.295 148.046,378.682 145.849,378.172 144.901 C 377.669 143.966,376.965 142.166,376.607 140.901 C 376.249 139.635,375.543 137.700,375.037 136.600 C 374.531 135.500,373.888 133.610,373.608 132.400 C 373.329 131.190,372.680 129.390,372.167 128.400 C 370.709 125.589,367.950 119.556,367.369 117.910 C 367.079 117.091,366.383 115.744,365.821 114.917 C 365.260 114.091,364.796 113.141,364.791 112.807 C 364.787 112.473,364.022 111.004,363.091 109.543 C 361.065 106.359,360.131 104.806,358.798 102.405 C 358.247 101.412,357.302 99.953,356.698 99.162 C 356.094 98.371,355.600 97.523,355.600 97.276 C 355.600 97.030,355.088 96.237,354.463 95.514 C 353.838 94.791,352.821 93.329,352.204 92.265 C 351.588 91.201,350.846 90.239,350.557 90.128 C 350.267 90.017,349.928 89.604,349.803 89.211 C 349.678 88.817,349.201 88.069,348.743 87.548 C 348.284 87.026,347.441 85.970,346.868 85.200 C 346.295 84.430,345.281 83.150,344.613 82.356 C 343.946 81.562,342.590 79.945,341.600 78.762 C 335.507 71.488,317.958 54.784,314.772 53.227 C 314.127 52.913,313.600 52.529,313.600 52.375 C 313.600 52.053,310.080 49.338,306.635 47.003 C 302.159 43.969,301.282 43.397,299.344 42.250 C 298.275 41.617,296.950 40.767,296.400 40.360 C 295.850 39.953,294.667 39.280,293.771 38.864 C 292.875 38.448,291.363 37.543,290.411 36.854 C 289.459 36.164,288.464 35.600,288.200 35.600 C 287.936 35.600,286.928 35.063,285.960 34.407 C 284.992 33.751,283.210 32.925,282.000 32.571 C 280.790 32.218,279.530 31.702,279.200 31.426 C 278.870 31.149,277.700 30.518,276.600 30.023 C 275.500 29.528,273.780 28.698,272.777 28.178 C 270.941 27.227,266.740 25.608,261.200 23.716 C 259.550 23.153,257.579 22.420,256.820 22.089 C 254.705 21.166,240.766 17.673,235.600 16.772 C 233.070 16.331,230.442 15.791,229.759 15.573 C 228.339 15.120,227.767 15.037,220.400 14.223 C 217.430 13.894,212.930 13.541,210.400 13.437 C 207.870 13.333,203.460 13.132,200.600 12.989 C 197.740 12.846,195.294 12.836,195.165 12.967 M208.600 106.819 C 238.645 109.392,256.400 125.726,256.400 150.792 C 256.400 169.256,248.310 181.777,229.389 192.595 C 221.290 197.226,221.303 197.279,236.006 219.094 C 264.102 260.781,261.818 258.212,271.352 258.867 C 280.996 259.530,283.200 261.118,283.200 267.403 C 283.200 274.432,279.761 275.912,264.402 275.491 C 255.364 275.244,253.859 274.874,250.845 272.165 C 248.792 270.319,237.933 254.473,216.662 222.285 C 200.811 198.297,202.153 199.400,188.800 199.400 C 178.266 199.400,177.212 199.699,175.500 203.174 L 174.600 205.000 174.600 229.011 L 174.600 253.021 175.605 254.974 C 177.235 258.142,178.378 258.530,187.101 258.875 C 197.863 259.301,200.058 260.617,200.340 266.812 C 200.545 271.331,199.001 273.771,195.243 274.864 C 192.549 275.648,141.021 275.648,138.424 274.864 C 131.546 272.789,131.439 261.733,138.277 259.684 C 139.168 259.417,142.125 259.096,144.848 258.971 C 152.103 258.638,154.300 257.569,155.666 253.710 C 156.608 251.047,156.439 131.620,155.490 129.160 C 154.172 125.747,151.812 124.449,145.012 123.400 C 135.573 121.944,132.030 118.631,133.615 112.743 C 134.808 108.314,137.284 107.596,147.196 108.808 C 155.173 109.784,164.728 109.783,173.400 108.805 C 188.621 107.090,202.572 106.303,208.600 106.819 M192.079 123.224 C 180.522 124.248,177.379 125.237,175.605 128.405 L 174.600 130.200 174.600 153.800 C 174.600 185.262,173.594 183.549,191.792 183.077 C 221.785 182.300,237.200 171.905,237.200 152.458 C 237.200 131.177,220.970 120.662,192.079 123.224 " stroke="none" fill="#73abdc" fill-rule="evenodd"></path><path id="path1" d="M162.400 0.649 C 160.970 0.953,157.900 1.545,155.577 1.965 C 143.563 4.137,131.880 7.815,120.740 12.934 C 117.143 14.587,112.328 16.683,110.040 17.590 C 104.821 19.662,104.327 19.918,99.171 23.225 C 96.844 24.718,93.064 26.961,90.771 28.210 C 88.477 29.460,85.790 31.087,84.800 31.826 C 83.810 32.564,80.300 35.104,77.000 37.469 C 73.700 39.834,70.730 42.062,70.400 42.420 C 68.809 44.149,62.319 49.979,60.404 51.400 C 56.159 54.551,52.071 58.821,50.194 62.068 C 49.971 62.454,48.321 64.362,46.529 66.308 C 42.473 70.711,38.118 75.854,36.800 77.797 C 35.929 79.082,31.329 85.065,29.868 86.814 C 26.809 90.476,18.406 106.030,16.801 111.000 C 16.517 111.880,15.263 114.760,14.014 117.400 C 10.766 124.266,9.090 128.946,4.561 143.800 C 3.354 147.760,1.830 152.677,1.176 154.727 L -0.014 158.454 0.093 200.727 L 0.200 243.000 1.315 246.200 C 1.928 247.960,3.067 251.560,3.846 254.200 C 7.049 265.055,11.374 277.251,13.999 282.826 C 15.514 286.044,16.883 289.199,17.040 289.838 C 17.676 292.413,20.102 297.331,23.732 303.400 C 29.202 312.546,30.057 313.841,32.877 317.256 C 34.264 318.937,36.256 321.547,37.303 323.056 C 39.371 326.037,39.787 326.532,44.688 331.839 C 46.497 333.798,49.059 336.840,50.382 338.600 C 51.705 340.360,53.195 342.328,53.694 342.974 C 54.192 343.619,56.400 345.573,58.600 347.315 C 60.800 349.057,64.532 352.280,66.894 354.478 C 70.850 358.157,75.471 361.865,77.387 362.897 C 77.820 363.130,79.620 364.435,81.387 365.796 C 84.813 368.435,87.410 370.102,93.800 373.764 C 96.000 375.024,99.466 377.101,101.502 378.379 C 103.538 379.656,107.574 381.638,110.471 382.783 C 113.368 383.928,117.552 385.683,119.769 386.685 C 125.861 389.436,148.992 396.982,154.418 397.989 C 156.938 398.456,160.297 399.100,161.883 399.419 C 164.270 399.900,170.636 399.999,198.883 399.995 L 233.000 399.989 241.600 398.206 C 264.674 393.422,285.377 385.578,302.017 375.317 C 312.974 368.560,318.007 365.221,323.706 360.929 C 326.283 358.988,329.415 356.680,330.666 355.800 C 333.290 353.955,352.136 335.072,355.219 331.200 C 356.358 329.770,357.838 327.790,358.509 326.800 C 359.180 325.810,360.489 324.096,361.418 322.990 C 365.767 317.817,370.704 310.465,374.136 304.051 C 380.168 292.779,385.127 282.321,387.531 275.800 C 388.424 273.380,389.953 269.324,390.929 266.786 C 391.906 264.249,393.089 260.559,393.557 258.586 C 394.026 256.614,394.566 254.460,394.758 253.800 C 394.950 253.140,395.498 251.250,395.977 249.600 C 396.456 247.950,397.558 244.440,398.426 241.800 L 400.003 237.000 400.005 200.000 L 400.007 163.000 398.644 159.000 C 396.586 152.966,395.367 148.923,394.603 145.600 C 393.059 138.891,386.938 121.851,383.539 114.800 C 373.324 93.607,369.212 86.672,360.614 76.132 C 359.506 74.774,358.150 73.004,357.600 72.199 C 353.682 66.460,334.051 46.587,328.400 42.639 C 326.310 41.179,323.520 39.161,322.200 38.154 C 318.331 35.203,312.411 31.327,301.665 24.710 C 289.912 17.472,268.922 8.454,257.243 5.623 C 255.569 5.218,252.130 4.340,249.600 3.672 C 247.070 3.005,243.650 2.247,242.000 1.988 C 240.350 1.729,237.560 1.177,235.800 0.761 C 231.584 -0.234,167.015 -0.333,162.400 0.649 M210.400 13.437 C 212.930 13.541,217.430 13.894,220.400 14.223 C 227.767 15.037,228.339 15.120,229.759 15.573 C 230.442 15.791,233.070 16.331,235.600 16.772 C 240.766 17.673,254.705 21.166,256.820 22.089 C 257.579 22.420,259.550 23.153,261.200 23.716 C 266.740 25.608,270.941 27.227,272.777 28.178 C 273.780 28.698,275.500 29.528,276.600 30.023 C 277.700 30.518,278.870 31.149,279.200 31.426 C 279.530 31.702,280.790 32.218,282.000 32.571 C 283.210 32.925,284.992 33.751,285.960 34.407 C 286.928 35.063,287.936 35.600,288.200 35.600 C 288.464 35.600,289.459 36.164,290.411 36.854 C 291.363 37.543,292.875 38.448,293.771 38.864 C 294.667 39.280,295.850 39.953,296.400 40.360 C 296.950 40.767,298.275 41.617,299.344 42.250 C 301.282 43.397,302.159 43.969,306.635 47.003 C 310.080 49.338,313.600 52.053,313.600 52.375 C 313.600 52.529,314.127 52.913,314.772 53.227 C 317.958 54.784,335.507 71.488,341.600 78.762 C 342.590 79.945,343.946 81.562,344.613 82.356 C 345.281 83.150,346.295 84.430,346.868 85.200 C 347.441 85.970,348.284 87.026,348.743 87.548 C 349.201 88.069,349.678 88.817,349.803 89.211 C 349.928 89.604,350.267 90.017,350.557 90.128 C 350.846 90.239,351.588 91.201,352.204 92.265 C 352.821 93.329,353.838 94.791,354.463 95.514 C 355.088 96.237,355.600 97.030,355.600 97.276 C 355.600 97.523,356.094 98.371,356.698 99.162 C 357.302 99.953,358.247 101.412,358.798 102.405 C 360.131 104.806,361.065 106.359,363.091 109.543 C 364.022 111.004,364.787 112.473,364.791 112.807 C 364.796 113.141,365.260 114.091,365.821 114.917 C 366.383 115.744,367.079 117.091,367.369 117.910 C 367.950 119.556,370.709 125.589,372.167 128.400 C 372.680 129.390,373.329 131.190,373.608 132.400 C 373.888 133.610,374.531 135.500,375.037 136.600 C 375.543 137.700,376.249 139.635,376.607 140.901 C 376.965 142.166,377.669 143.966,378.172 144.901 C 378.682 145.849,379.295 148.046,379.559 149.871 C 379.819 151.670,380.458 154.190,380.978 155.471 C 381.497 156.752,382.043 158.790,382.189 160.000 C 382.579 163.221,383.522 168.298,384.172 170.669 C 384.484 171.807,384.842 173.669,384.969 174.806 C 385.096 175.944,385.294 177.028,385.409 177.214 C 386.418 178.846,385.714 222.686,384.603 227.400 C 384.241 228.940,383.691 231.280,383.381 232.600 C 383.072 233.920,382.711 236.170,382.578 237.600 C 382.318 240.407,381.711 243.158,381.209 243.800 C 380.719 244.427,379.706 248.330,379.255 251.330 C 379.029 252.831,378.504 254.636,378.088 255.341 C 377.672 256.046,376.924 257.967,376.424 259.611 C 375.925 261.255,375.237 263.140,374.896 263.800 C 374.555 264.460,373.941 266.339,373.531 267.975 C 373.122 269.612,372.530 271.235,372.216 271.583 C 371.901 271.930,371.241 273.291,370.750 274.607 C 370.258 275.923,369.506 277.508,369.080 278.129 C 368.653 278.750,368.052 280.097,367.743 281.123 C 367.434 282.149,366.763 283.621,366.252 284.394 C 365.741 285.167,365.078 286.520,364.779 287.400 C 364.481 288.280,363.933 289.360,363.563 289.800 C 363.193 290.240,362.292 291.680,361.561 293.000 C 360.830 294.320,360.039 295.580,359.804 295.800 C 359.568 296.020,358.930 297.142,358.387 298.294 C 357.844 299.445,357.269 300.390,357.108 300.394 C 356.948 300.397,356.428 301.165,355.954 302.100 C 355.480 303.035,354.577 304.391,353.946 305.114 C 353.316 305.837,352.800 306.626,352.800 306.869 C 352.800 307.304,350.640 310.202,348.100 313.175 C 347.385 314.012,346.800 314.822,346.800 314.974 C 346.800 316.668,326.318 337.829,319.286 343.400 C 318.731 343.840,317.809 344.627,317.238 345.150 C 316.667 345.672,315.570 346.525,314.800 347.046 C 314.030 347.567,312.500 348.709,311.400 349.584 C 310.300 350.460,307.960 352.142,306.200 353.323 C 304.440 354.503,302.486 355.814,301.858 356.235 C 299.310 357.943,295.306 360.428,293.800 361.237 C 292.920 361.710,291.954 362.300,291.653 362.548 C 290.235 363.720,284.546 366.670,279.200 369.006 C 277.330 369.824,274.660 371.024,273.267 371.674 C 268.534 373.883,258.045 377.551,251.200 379.392 C 248.450 380.131,245.120 381.117,243.800 381.582 C 242.480 382.048,239.690 382.713,237.600 383.061 C 232.526 383.905,231.935 384.010,231.000 384.231 C 227.012 385.172,220.709 386.043,215.400 386.388 C 211.880 386.617,208.370 386.884,207.600 386.982 C 205.309 387.273,196.014 387.329,193.000 387.071 C 191.460 386.939,188.580 386.729,186.600 386.605 C 179.455 386.156,177.304 385.922,171.400 384.946 C 168.100 384.401,165.220 383.903,165.000 383.840 C 163.728 383.475,162.425 383.199,161.107 383.015 C 158.944 382.713,156.535 382.138,153.800 381.272 C 152.480 380.853,150.320 380.297,149.000 380.035 C 147.680 379.773,144.890 378.958,142.800 378.222 C 140.710 377.487,138.190 376.655,137.200 376.373 C 136.210 376.091,134.950 375.623,134.400 375.333 C 133.850 375.043,131.832 374.289,129.916 373.659 C 127.999 373.028,125.981 372.217,125.430 371.856 C 124.879 371.495,124.327 371.200,124.203 371.200 C 123.448 371.200,108.763 363.944,107.600 362.997 C 107.270 362.728,106.010 362.024,104.800 361.433 C 103.590 360.841,102.420 360.125,102.200 359.841 C 101.980 359.557,100.986 358.965,99.992 358.525 C 98.997 358.086,97.895 357.438,97.543 357.086 C 97.191 356.734,96.167 356.030,95.268 355.523 C 94.370 355.015,93.131 354.190,92.517 353.688 C 91.903 353.186,90.140 351.888,88.600 350.801 C 82.662 346.613,81.821 345.929,74.106 339.000 C 70.760 335.995,61.776 327.005,58.986 323.870 C 57.454 322.148,55.840 320.351,55.400 319.877 C 54.960 319.402,53.478 317.481,52.106 315.607 C 50.734 313.733,49.114 311.600,48.506 310.866 C 47.898 310.132,47.278 309.205,47.128 308.807 C 46.978 308.408,46.661 307.962,46.423 307.814 C 46.047 307.582,44.088 304.811,42.478 302.235 C 42.192 301.776,41.429 300.590,40.784 299.600 C 40.139 298.610,39.046 296.675,38.355 295.300 C 37.664 293.925,36.983 292.800,36.840 292.800 C 36.698 292.800,36.236 292.125,35.814 291.300 C 35.391 290.475,34.672 289.260,34.215 288.600 C 33.758 287.940,33.191 286.950,32.956 286.400 C 32.721 285.850,31.797 283.870,30.904 282.000 C 30.010 280.130,29.050 277.970,28.770 277.200 C 28.490 276.430,27.957 275.350,27.587 274.800 C 27.216 274.250,26.513 272.585,26.024 271.100 C 25.535 269.615,24.990 268.400,24.814 268.400 C 24.638 268.400,24.396 267.995,24.278 267.500 C 23.204 263.004,22.665 261.276,22.002 260.203 C 21.576 259.514,20.855 257.353,20.400 255.399 C 19.944 253.446,19.403 251.644,19.196 251.395 C 18.699 250.796,17.709 246.757,17.383 244.000 C 17.240 242.790,16.672 240.727,16.121 239.415 C 15.375 237.640,14.979 235.595,14.572 231.415 C 13.900 224.517,13.612 222.488,13.123 221.200 C 11.237 216.234,11.288 186.307,13.196 178.600 C 13.632 176.840,14.183 172.970,14.420 170.000 C 14.658 167.030,15.025 164.041,15.238 163.359 C 15.450 162.676,15.692 161.776,15.776 161.359 C 15.860 160.941,16.213 160.060,16.562 159.400 C 16.910 158.740,17.200 157.750,17.206 157.200 C 17.224 155.571,18.680 149.497,19.364 148.200 C 19.711 147.540,20.095 146.370,20.216 145.600 C 20.545 143.504,21.280 141.152,22.041 139.761 C 22.413 139.079,23.107 137.099,23.582 135.361 C 24.058 133.622,24.722 131.778,25.058 131.262 C 25.394 130.746,26.031 129.218,26.475 127.866 C 26.919 126.514,27.602 124.956,27.994 124.404 C 28.385 123.852,28.995 122.545,29.348 121.499 C 29.702 120.454,30.416 118.924,30.934 118.099 C 31.453 117.275,32.096 115.934,32.363 115.120 C 32.630 114.305,33.290 112.990,33.828 112.196 C 34.367 111.403,35.190 109.999,35.657 109.077 C 36.125 108.155,36.640 107.310,36.802 107.200 C 36.964 107.090,37.665 105.870,38.360 104.488 C 39.055 103.107,39.933 101.648,40.312 101.246 C 40.690 100.845,41.500 99.635,42.110 98.558 C 43.185 96.663,44.387 94.878,45.988 92.800 C 47.468 90.879,49.409 88.183,50.599 86.399 C 51.258 85.409,51.898 84.510,52.020 84.400 C 52.142 84.290,52.772 83.480,53.420 82.600 C 54.068 81.720,55.093 80.523,55.699 79.940 C 56.304 79.356,56.800 78.720,56.800 78.526 C 56.800 78.331,57.340 77.854,58.000 77.464 C 58.660 77.074,59.200 76.527,59.200 76.248 C 59.200 75.771,68.437 66.168,70.269 64.740 C 70.734 64.377,71.269 63.826,71.458 63.516 C 71.646 63.206,72.188 62.687,72.663 62.364 C 73.406 61.858,75.257 60.249,80.446 55.600 C 82.063 54.150,89.343 48.660,90.797 47.793 C 91.172 47.570,92.001 46.990,92.639 46.506 C 94.635 44.991,99.271 41.947,99.951 41.705 C 100.308 41.577,101.434 40.872,102.454 40.137 C 103.473 39.402,104.433 38.800,104.586 38.800 C 104.739 38.800,105.795 38.190,106.932 37.444 C 108.069 36.698,109.720 35.736,110.600 35.306 C 111.480 34.877,112.740 34.236,113.400 33.882 C 114.060 33.528,116.130 32.530,118.000 31.664 C 119.870 30.798,122.930 29.371,124.800 28.493 C 126.670 27.614,129.100 26.569,130.200 26.171 C 131.300 25.773,132.605 25.191,133.100 24.878 C 133.595 24.564,134.000 24.441,134.000 24.603 C 134.000 24.765,134.225 24.715,134.500 24.491 C 134.775 24.267,136.170 23.710,137.600 23.253 C 139.030 22.796,141.487 21.986,143.061 21.452 C 144.634 20.919,146.642 20.381,147.523 20.258 C 149.820 19.937,151.196 19.608,152.867 18.982 C 154.656 18.312,159.023 17.262,162.000 16.786 C 163.210 16.592,166.270 16.058,168.800 15.600 C 171.330 15.141,173.830 14.691,174.357 14.599 C 176.932 14.150,183.607 13.610,188.965 13.418 C 192.245 13.300,195.035 13.097,195.165 12.967 C 195.294 12.836,197.740 12.846,200.600 12.989 C 203.460 13.132,207.870 13.333,210.400 13.437 M189.000 107.423 C 182.620 107.935,175.600 108.557,173.400 108.805 C 164.728 109.783,155.173 109.784,147.196 108.808 C 137.284 107.596,134.808 108.314,133.615 112.743 C 132.030 118.631,135.573 121.944,145.012 123.400 C 151.812 124.449,154.172 125.747,155.490 129.160 C 156.439 131.620,156.608 251.047,155.666 253.710 C 154.300 257.569,152.103 258.638,144.848 258.971 C 142.125 259.096,139.168 259.417,138.277 259.684 C 131.439 261.733,131.546 272.789,138.424 274.864 C 141.021 275.648,192.549 275.648,195.243 274.864 C 199.001 273.771,200.545 271.331,200.340 266.812 C 200.058 260.617,197.863 259.301,187.101 258.875 C 178.378 258.530,177.235 258.142,175.605 254.974 L 174.600 253.021 174.600 229.011 L 174.600 205.000 175.500 203.174 C 177.212 199.699,178.266 199.400,188.800 199.400 C 202.153 199.400,200.811 198.297,216.662 222.285 C 237.933 254.473,248.792 270.319,250.845 272.165 C 253.859 274.874,255.364 275.244,264.402 275.491 C 279.761 275.912,283.200 274.432,283.200 267.403 C 283.200 261.118,280.996 259.530,271.352 258.867 C 261.818 258.212,264.102 260.781,236.006 219.094 C 221.303 197.279,221.290 197.226,229.389 192.595 C 248.310 181.777,256.400 169.256,256.400 150.792 C 256.400 125.726,238.645 109.392,208.600 106.819 C 202.634 106.308,203.019 106.297,189.000 107.423 M211.400 123.591 C 228.382 126.812,237.200 136.678,237.200 152.458 C 237.200 171.905,221.785 182.300,191.792 183.077 C 173.594 183.549,174.600 185.262,174.600 153.800 L 174.600 130.200 175.605 128.405 C 177.379 125.237,180.522 124.248,192.079 123.224 C 197.184 122.771,208.181 122.980,211.400 123.591 " stroke="none" fill="#f2f6fa" fill-rule="evenodd"></path></g></svg>